<?xml version="1.0" standalone="no"?>
<!DOCTYPE svg PUBLIC "-//W3C//DTD SVG 20010904//EN"
 "http://www.w3.org/TR/2001/REC-SVG-20010904/DTD/svg10.dtd">
<svg version="1.0" xmlns="http://www.w3.org/2000/svg"
 width="512.000000pt" height="512.000000pt" viewBox="0 0 512.000000 512.000000"
 preserveAspectRatio="xMidYMid meet">

<g transform="translate(0.000000,512.000000) scale(0.100000,-0.100000)"
fill="#fc0000" stroke="none">
<path d="M1978 3940 c-1432 -5 -1447 -5 -1462 -25 -9 -11 -15 -29 -15 -40 0
-20 13 -36 234 -292 66 -76 131 -151 145 -167 14 -17 48 -55 75 -86 28 -31
100 -114 160 -184 61 -71 115 -134 120 -140 6 -6 55 -63 109 -126 55 -63 125
-144 157 -180 199 -225 249 -286 249 -301 0 -10 -85 -188 -190 -395 -104 -208
-188 -380 -186 -382 2 -1 217 -3 478 -4 530 0 536 0 594 64 20 22 94 157 176
323 l142 284 465 3 466 4 71 26 c181 66 320 205 381 381 33 95 41 236 19 329
-57 242 -255 428 -497 467 -68 11 -2289 16 -2289 6 0 -3 48 -61 106 -128 59
-67 145 -167 193 -221 47 -55 118 -136 156 -180 39 -45 110 -127 159 -183 48
-57 92 -103 97 -103 5 0 59 100 120 221 125 250 157 291 255 330 59 23 61 23
504 24 l445 0 66 -32 c196 -96 269 -301 177 -501 -22 -50 -99 -129 -150 -153
-18 -9 -46 -22 -62 -30 -22 -11 -86 -14 -280 -14 -249 0 -251 0 -254 21 -2 13
43 113 102 233 l106 211 -252 0 c-290 0 -311 -5 -360 -82 -14 -24 -141 -272
-282 -553 -141 -280 -265 -525 -276 -542 l-20 -33 -135 0 c-97 0 -135 3 -135
12 0 6 68 145 150 309 83 164 150 303 150 309 0 10 -61 93 -81 110 -6 5 -149
170 -188 216 -14 16 -68 79 -121 139 -82 94 -246 283 -316 365 -40 46 -246
285 -273 315 -14 17 -54 62 -88 102 -35 39 -63 79 -63 87 0 15 131 16 1403 16
934 0 1424 -4 1467 -11 185 -30 367 -125 497 -258 93 -96 177 -247 220 -396
25 -86 24 -314 -1 -410 -69 -257 -231 -458 -462 -572 -172 -84 -185 -86 -636
-90 l-397 -4 -97 -197 c-106 -213 -128 -253 -186 -323 -45 -55 -96 -92 -169
-121 -53 -22 -65 -22 -645 -26 l-590 -3 -37 -75 c-20 -41 -37 -79 -37 -85 0
-16 1263 -7 1315 10 224 72 307 157 466 473 l88 176 363 4 c338 4 368 6 438
26 408 120 696 433 765 831 27 152 14 365 -30 496 -47 142 -145 303 -249 413
-111 118 -295 225 -474 277 -77 22 -122 28 -255 33 -89 4 -813 5 -1609 2z"/>
<path d="M592 3577 c2 -21 496 -590 986 -1139 l33 -36 -350 -699 c-219 -438
-346 -704 -341 -712 24 -40 47 0 401 704 260 516 355 713 349 725 -5 8 -240
276 -522 595 -510 576 -565 632 -556 562z"/>
</g>
</svg>
